<svg xmlns="http://www.w3.org/2000/svg" xmlns:xlink="http://www.w3.org/1999/xlink" width="500" zoomAndPan="magnify" viewBox="0 0 375 374.999991" height="500" preserveAspectRatio="xMidYMid meet" version="1.2"><g id="fd1655edca"><path style=" stroke:none;fill-rule:nonzero;fill:#000000;fill-opacity:1;" d="M 186.898438 0.339844 C 83.039062 0.691406 0.0273438 85.140625 1.382812 188.996094 C 1.445312 194.214844 1.726562 199.421875 2.226562 204.613281 C 2.726562 209.808594 3.445312 214.972656 4.382812 220.105469 C 5.320312 225.238281 6.472656 230.324219 7.839844 235.359375 C 9.207031 240.394531 10.78125 245.363281 12.570312 250.269531 C 14.355469 255.171875 16.34375 259.988281 18.539062 264.726562 C 20.730469 269.460938 23.121094 274.09375 25.703125 278.628906 C 28.289062 283.160156 31.058594 287.578125 34.015625 291.875 C 36.976562 296.175781 40.109375 300.339844 43.417969 304.375 C 43.9375 305.011719 44.40625 305.683594 44.828125 306.390625 C 45.246094 307.101562 45.609375 307.835938 45.917969 308.597656 C 46.230469 309.359375 46.480469 310.136719 46.671875 310.9375 C 46.867188 311.738281 47 312.546875 47.070312 313.367188 C 47.140625 314.183594 47.152344 315.003906 47.101562 315.824219 C 47.050781 316.644531 46.9375 317.457031 46.765625 318.261719 C 46.59375 319.066406 46.363281 319.851562 46.070312 320.621094 C 45.78125 321.390625 45.433594 322.132812 45.035156 322.851562 L 28.996094 351.589844 C 24.550781 359.558594 31.792969 368.980469 40.636719 366.726562 L 94.957031 352.898438 C 96.851562 352.417969 98.769531 352.277344 100.714844 352.476562 C 102.65625 352.675781 104.507812 353.203125 106.265625 354.058594 C 118.277344 359.894531 130.773438 364.378906 143.753906 367.511719 C 156.734375 370.644531 169.898438 372.355469 183.25 372.640625 C 287.675781 375.003906 373.386719 291.5625 373.714844 187.109375 C 374.039062 83.800781 290.214844 -0.0078125 186.898438 0.339844 Z M 187.542969 349.75 C 184.871094 349.75 182.199219 349.683594 179.53125 349.550781 C 176.863281 349.421875 174.199219 349.226562 171.542969 348.964844 C 168.882812 348.703125 166.230469 348.375 163.589844 347.980469 C 160.949219 347.589844 158.316406 347.132812 155.695312 346.613281 C 153.074219 346.089844 150.46875 345.507812 147.878906 344.859375 C 145.289062 344.207031 142.714844 343.496094 140.15625 342.71875 C 137.601562 341.945312 135.066406 341.109375 132.550781 340.207031 C 130.035156 339.308594 127.542969 338.347656 125.074219 337.324219 C 122.605469 336.300781 120.164062 335.21875 117.75 334.078125 C 115.335938 332.933594 112.949219 331.734375 110.59375 330.476562 C 108.238281 329.214844 105.914062 327.898438 103.621094 326.527344 C 101.332031 325.152344 99.074219 323.722656 96.851562 322.238281 C 94.632812 320.757812 92.449219 319.21875 90.304688 317.625 C 88.15625 316.035156 86.050781 314.390625 83.988281 312.699219 C 81.921875 311.003906 79.898438 309.257812 77.921875 307.464844 C 75.941406 305.671875 74.007812 303.828125 72.117188 301.941406 C 70.230469 300.050781 68.386719 298.117188 66.59375 296.136719 C 64.800781 294.15625 63.054688 292.136719 61.359375 290.070312 C 59.664062 288.003906 58.023438 285.898438 56.429688 283.753906 C 54.839844 281.609375 53.300781 279.425781 51.816406 277.203125 C 50.332031 274.984375 48.902344 272.726562 47.53125 270.433594 C 46.15625 268.144531 44.839844 265.820312 43.582031 263.464844 C 42.324219 261.109375 41.121094 258.722656 39.980469 256.308594 C 38.835938 253.890625 37.753906 251.449219 36.734375 248.984375 C 35.710938 246.515625 34.75 244.023438 33.847656 241.507812 C 32.949219 238.992188 32.113281 236.457031 31.335938 233.898438 C 30.5625 231.34375 29.847656 228.769531 29.199219 226.179688 C 28.550781 223.585938 27.964844 220.980469 27.445312 218.359375 C 26.921875 215.742188 26.464844 213.109375 26.074219 210.464844 C 25.683594 207.824219 25.355469 205.171875 25.09375 202.515625 C 24.832031 199.855469 24.636719 197.191406 24.503906 194.523438 C 24.371094 191.855469 24.308594 189.1875 24.308594 186.515625 C 24.308594 96.363281 97.390625 23.28125 187.542969 23.28125 C 277.34375 23.28125 350.207031 95.796875 350.773438 185.464844 C 351.339844 275.4375 277.515625 349.75 187.542969 349.75 Z M 187.542969 349.75 "/><path style=" stroke:none;fill-rule:nonzero;fill:#000000;fill-opacity:1;" d="M 158.367188 107.15625 L 158.441406 107.304688 L 168.179688 126.613281 C 168.703125 127.652344 169.136719 128.726562 169.488281 129.835938 C 169.839844 130.945312 170.097656 132.074219 170.265625 133.226562 C 170.433594 134.375 170.507812 135.53125 170.488281 136.695312 C 170.472656 137.859375 170.359375 139.011719 170.15625 140.15625 C 169.949219 141.300781 169.65625 142.421875 169.269531 143.519531 C 168.882812 144.617188 168.410156 145.675781 167.855469 146.695312 C 167.296875 147.71875 166.664062 148.6875 165.949219 149.605469 C 165.238281 150.527344 164.457031 151.382812 163.605469 152.171875 C 162.757812 152.960938 161.976562 153.808594 161.265625 154.722656 C 160.554688 155.632812 159.921875 156.59375 159.363281 157.609375 C 158.808594 158.621094 158.335938 159.671875 157.949219 160.761719 C 157.5625 161.851562 157.265625 162.964844 157.054688 164.101562 C 156.847656 165.242188 156.730469 166.386719 156.707031 167.542969 C 156.683594 168.699219 156.753906 169.847656 156.914062 170.992188 C 157.074219 172.140625 157.324219 173.261719 157.667969 174.367188 C 158.007812 175.472656 158.4375 176.542969 158.949219 177.578125 C 164.792969 189.316406 174.921875 205.492188 190.371094 217.164062 C 191.234375 217.816406 192.136719 218.402344 193.085938 218.921875 C 194.035156 219.441406 195.019531 219.886719 196.03125 220.257812 C 197.046875 220.628906 198.085938 220.921875 199.144531 221.136719 C 200.203125 221.355469 201.273438 221.492188 202.351562 221.546875 C 203.433594 221.605469 204.511719 221.578125 205.585938 221.476562 C 206.664062 221.371094 207.726562 221.1875 208.773438 220.921875 C 209.820312 220.660156 210.84375 220.320312 211.84375 219.902344 C 212.839844 219.484375 213.800781 218.996094 214.726562 218.4375 L 220.996094 214.621094 C 222.402344 213.765625 223.886719 213.078125 225.449219 212.5625 C 227.011719 212.046875 228.613281 211.710938 230.25 211.5625 C 231.890625 211.410156 233.527344 211.445312 235.15625 211.667969 C 236.789062 211.890625 238.371094 212.292969 239.910156 212.878906 L 264.832031 222.355469 C 265.496094 222.605469 266.140625 222.890625 266.777344 223.203125 C 267.410156 223.519531 268.027344 223.867188 268.628906 224.242188 C 269.226562 224.617188 269.808594 225.023438 270.367188 225.453125 C 270.929688 225.886719 271.464844 226.347656 271.980469 226.832031 C 272.496094 227.320312 272.988281 227.828125 273.453125 228.363281 C 273.917969 228.894531 274.355469 229.453125 274.765625 230.027344 C 275.175781 230.605469 275.558594 231.203125 275.910156 231.816406 C 276.261719 232.429688 276.582031 233.058594 276.871094 233.707031 C 277.164062 234.351562 277.421875 235.011719 277.644531 235.683594 C 277.871094 236.355469 278.0625 237.035156 278.222656 237.722656 C 278.378906 238.414062 278.503906 239.109375 278.59375 239.8125 C 278.683594 240.515625 278.738281 241.222656 278.761719 241.929688 C 278.78125 242.636719 278.765625 243.34375 278.71875 244.050781 C 278.671875 244.757812 278.585938 245.457031 278.46875 246.15625 C 278.351562 246.855469 278.199219 247.546875 278.015625 248.230469 C 277.828125 248.914062 277.609375 249.585938 277.359375 250.246094 C 277.066406 251.007812 276.734375 251.75 276.363281 252.476562 L 269.457031 265.859375 C 268.898438 266.945312 268.25 267.972656 267.519531 268.945312 C 266.785156 269.917969 265.976562 270.824219 265.089844 271.660156 C 264.207031 272.496094 263.253906 273.253906 262.242188 273.929688 C 261.230469 274.605469 260.164062 275.191406 259.054688 275.6875 C 257.941406 276.183594 256.792969 276.585938 255.613281 276.886719 C 254.433594 277.191406 253.238281 277.394531 252.023438 277.492188 C 250.808594 277.59375 249.59375 277.59375 248.378906 277.488281 C 247.167969 277.382812 245.96875 277.179688 244.789062 276.871094 C 205.648438 266.746094 112.367188 231.546875 104.851562 125.105469 C 104.777344 124.054688 104.78125 123.007812 104.859375 121.957031 C 104.9375 120.90625 105.09375 119.867188 105.324219 118.839844 C 105.554688 117.8125 105.859375 116.804688 106.238281 115.824219 C 106.613281 114.839844 107.0625 113.890625 107.578125 112.972656 C 108.09375 112.054688 108.675781 111.175781 109.320312 110.34375 C 109.964844 109.511719 110.664062 108.730469 111.421875 108 C 112.183594 107.269531 112.988281 106.597656 113.847656 105.984375 C 114.703125 105.371094 115.601562 104.824219 116.535156 104.34375 L 129.246094 97.8125 C 129.878906 97.488281 130.519531 97.195312 131.179688 96.9375 C 131.839844 96.675781 132.507812 96.449219 133.1875 96.253906 C 133.871094 96.058594 134.558594 95.898438 135.253906 95.769531 C 135.953125 95.644531 136.652344 95.550781 137.359375 95.492188 C 138.066406 95.433594 138.773438 95.410156 139.480469 95.421875 C 140.1875 95.433594 140.894531 95.480469 141.597656 95.558594 C 142.300781 95.640625 143 95.753906 143.691406 95.90625 C 144.382812 96.054688 145.066406 96.238281 145.742188 96.453125 C 146.417969 96.667969 147.078125 96.917969 147.730469 97.199219 C 148.378906 97.480469 149.011719 97.792969 149.632812 98.136719 C 150.25 98.480469 150.851562 98.855469 151.433594 99.257812 C 152.015625 99.660156 152.578125 100.089844 153.117188 100.550781 C 153.660156 101.007812 154.175781 101.492188 154.667969 102 C 155.160156 102.507812 155.628906 103.039062 156.070312 103.59375 C 156.507812 104.148438 156.921875 104.722656 157.304688 105.320312 C 157.6875 105.914062 158.042969 106.527344 158.367188 107.15625 Z M 158.367188 107.15625 "/></g></svg>